Sector.7.2011.HDRip.HCSubs.XVID.AC3.HQ.Hive-CM8


Thx Hive

CM8 Doing It Right The First Time


Source: Korean 720p HD Webstream

Encode:

this is Koreans first 3D Movie, and a very good looking alien movie with cgi effects on mass at a oil rig. very promising and lots of alien and 3d effects inside the movie.
Audio is KOREAN, had the movie some while but no useful subs till now.
was a loads of work to get them in sync, now they are in place. had to retime a lot to fit on that stream.

Quality was good, still added sharpness,brightness,rgb and denoise
got very nice


Video: 720x384 @bitrate 1700 2pass
Audio: Korean AC3 2.0 Stereo
Subs: yes Hardcoded English
Sample: yes included

 
http://www.imdb.com/title/tt1934381/


General
Format                         : AVI
Format/Info                    : Audio Video Interleave
File size                      : 1.34 GiB
Duration                       : 1h 41mn
Overall bit rate               : 1 900 Kbps
Writing application            : Nandub v1.0rc2
Writing library                : Nandub build 1853/release

Video
ID                             : 0
Format                         : MPEG-4 Visual
Format profile                 : Advanced Simple@L5
Format settings, BVOP          : 2
Format settings, QPel          : Yes
Format settings, GMC           : No warppoints
Format settings, Matrix        : Default (H.263)
Muxing mode                    : Packed bitstream
Codec ID                       : XVID
Codec ID/Hint                  : XviD
Duration                       : 1h 41mn
Bit rate                       : 1 698 Kbps
Width                          : 720 pixels
Height                         : 384 pixels
Display aspect ratio           : 1.875
Frame rate                     : 23.976 fps
Color space                    : YUV
Chroma subsampling             : 4:2:0
Bit depth                      : 8 bits
Scan type                      : Progressive
Compression mode               : Lossy
Bits/(Pixel*Frame)             : 0.256
Stream size                    : 1.20 GiB (89%)
Writing library                : XviD 1.2.1 (UTC 2008-12-04)

Audio
ID                             : 1
Format                         : AC-3
Format/Info                    : Audio Coding 3
Mode extension                 : CM (complete main)
Codec ID                       : 2000
Duration                       : 1h 41mn
Bit rate mode                  : Constant
Bit rate                       : 192 Kbps
Channel(s)                     : 2 channels
Channel positions              : Front: L R
Sampling rate                  : 48.0 KHz
Bit depth                      : 16 bits
Compression mode               : Lossy
Delay relative to video        : 13ms
Stream size                    : 139 MiB (10%)
Alignment                      : Split accross interleaves
Interleave, duration           : 42 ms (1.00 video frame)
Interleave, preload duration   : 500 ms


Plot:

Sector 7 is not your typical Korean horror movie; it’s actually South Korea’s first 3D IMAX film. Sector 7 is about a crew of an oil drillship on the mission 
to find petroleum. Instead, they encounter a vicious monster on board.


Cast:

Ji-won Ha ... Cha / Hae-jun
Sung-kee Ahn ... Jeong Man
Ji-ho Oh ... Kim / Dong-soo
Ae-ryeon Cha ... Scientist Kim


Poster:

 
http://www.shotpix.com/images/00988024901585933865.jpg


Screens:

 
http://www.shotpix.com/images/27265075751872537058.png
 
http://www.shotpix.com/images/15939769071125104460.png
 
http://www.shotpix.com/images/20939946091258340388.png


ENJOY!